<mxfile host="app.diagrams.net" agent="Mozilla/5.0 (Macintosh; Intel Mac OS X 10_15_7) AppleWebKit/537.36 (KHTML, like Gecko) Chrome/131.0.0.0 Safari/537.36 Edg/131.0.0.0" version="25.0.3">
  <diagram name="Page-1" id="-smm-VKftjKDEiIyeQWm">
    <mxGraphModel dx="858" dy="537" grid="1" gridSize="10" guides="1" tooltips="1" connect="1" arrows="1" fold="1" page="1" pageScale="1" pageWidth="850" pageHeight="1100" math="0" shadow="0">
      <root>
        <mxCell id="0" />
        <mxCell id="1" parent="0" />
        <mxCell id="jNzCGLF9xOXy1pfkeXg_-9" style="edgeStyle=orthogonalEdgeStyle;shape=connector;rounded=0;orthogonalLoop=1;jettySize=auto;html=1;exitX=0.5;exitY=1;exitDx=0;exitDy=0;entryX=0.5;entryY=0;entryDx=0;entryDy=0;strokeColor=default;align=center;verticalAlign=middle;fontFamily=Helvetica;fontSize=11;fontColor=default;labelBackgroundColor=default;endArrow=none;endFill=0;startArrow=ERoneToMany;startFill=0;" edge="1" parent="1" source="jNzCGLF9xOXy1pfkeXg_-1" target="jNzCGLF9xOXy1pfkeXg_-8">
          <mxGeometry relative="1" as="geometry">
            <Array as="points">
              <mxPoint x="160" y="230" />
              <mxPoint x="320" y="230" />
            </Array>
          </mxGeometry>
        </mxCell>
        <mxCell id="jNzCGLF9xOXy1pfkeXg_-46" style="edgeStyle=none;shape=connector;rounded=0;orthogonalLoop=1;jettySize=auto;html=1;exitX=1;exitY=0.5;exitDx=0;exitDy=0;entryX=0;entryY=0.5;entryDx=0;entryDy=0;strokeColor=default;align=center;verticalAlign=middle;fontFamily=Helvetica;fontSize=11;fontColor=default;labelBackgroundColor=default;endArrow=none;endFill=0;startArrow=ERzeroToOne;startFill=0;" edge="1" parent="1" source="jNzCGLF9xOXy1pfkeXg_-1" target="jNzCGLF9xOXy1pfkeXg_-45">
          <mxGeometry relative="1" as="geometry" />
        </mxCell>
        <mxCell id="jNzCGLF9xOXy1pfkeXg_-65" style="edgeStyle=none;shape=connector;rounded=0;orthogonalLoop=1;jettySize=auto;html=1;exitX=0;exitY=0.5;exitDx=0;exitDy=0;entryX=1;entryY=0.5;entryDx=0;entryDy=0;strokeColor=default;align=center;verticalAlign=middle;fontFamily=Helvetica;fontSize=11;fontColor=default;labelBackgroundColor=default;endArrow=none;endFill=0;" edge="1" parent="1" source="jNzCGLF9xOXy1pfkeXg_-1" target="jNzCGLF9xOXy1pfkeXg_-64">
          <mxGeometry relative="1" as="geometry" />
        </mxCell>
        <mxCell id="jNzCGLF9xOXy1pfkeXg_-67" style="edgeStyle=none;shape=connector;rounded=0;orthogonalLoop=1;jettySize=auto;html=1;exitX=0;exitY=0.5;exitDx=0;exitDy=0;entryX=1;entryY=0.5;entryDx=0;entryDy=0;strokeColor=default;align=center;verticalAlign=middle;fontFamily=Helvetica;fontSize=11;fontColor=default;labelBackgroundColor=default;endArrow=none;endFill=0;" edge="1" parent="1" source="jNzCGLF9xOXy1pfkeXg_-1" target="jNzCGLF9xOXy1pfkeXg_-66">
          <mxGeometry relative="1" as="geometry" />
        </mxCell>
        <mxCell id="jNzCGLF9xOXy1pfkeXg_-69" style="edgeStyle=none;shape=connector;rounded=0;orthogonalLoop=1;jettySize=auto;html=1;exitX=0;exitY=0.75;exitDx=0;exitDy=0;entryX=1;entryY=0.5;entryDx=0;entryDy=0;strokeColor=default;align=center;verticalAlign=middle;fontFamily=Helvetica;fontSize=11;fontColor=default;labelBackgroundColor=default;endArrow=none;endFill=0;" edge="1" parent="1" source="jNzCGLF9xOXy1pfkeXg_-1" target="jNzCGLF9xOXy1pfkeXg_-68">
          <mxGeometry relative="1" as="geometry" />
        </mxCell>
        <mxCell id="jNzCGLF9xOXy1pfkeXg_-81" style="edgeStyle=none;shape=connector;rounded=0;orthogonalLoop=1;jettySize=auto;html=1;exitX=0;exitY=1;exitDx=0;exitDy=0;entryX=1;entryY=0;entryDx=0;entryDy=0;strokeColor=default;align=center;verticalAlign=middle;fontFamily=Helvetica;fontSize=11;fontColor=default;labelBackgroundColor=default;endArrow=none;endFill=0;" edge="1" parent="1" source="jNzCGLF9xOXy1pfkeXg_-1" target="jNzCGLF9xOXy1pfkeXg_-80">
          <mxGeometry relative="1" as="geometry" />
        </mxCell>
        <mxCell id="jNzCGLF9xOXy1pfkeXg_-1" value="Lecturer" style="whiteSpace=wrap;html=1;align=center;" vertex="1" parent="1">
          <mxGeometry x="110" y="155" width="100" height="40" as="geometry" />
        </mxCell>
        <mxCell id="jNzCGLF9xOXy1pfkeXg_-21" style="edgeStyle=none;shape=connector;rounded=0;orthogonalLoop=1;jettySize=auto;html=1;exitX=0.5;exitY=1;exitDx=0;exitDy=0;entryX=0.5;entryY=0;entryDx=0;entryDy=0;strokeColor=default;align=center;verticalAlign=middle;fontFamily=Helvetica;fontSize=11;fontColor=default;labelBackgroundColor=default;endArrow=none;endFill=0;startArrow=ERmany;startFill=0;" edge="1" parent="1" source="jNzCGLF9xOXy1pfkeXg_-2" target="jNzCGLF9xOXy1pfkeXg_-20">
          <mxGeometry relative="1" as="geometry" />
        </mxCell>
        <mxCell id="jNzCGLF9xOXy1pfkeXg_-77" style="edgeStyle=none;shape=connector;rounded=0;orthogonalLoop=1;jettySize=auto;html=1;exitX=1;exitY=0.5;exitDx=0;exitDy=0;entryX=0;entryY=0.5;entryDx=0;entryDy=0;strokeColor=default;align=center;verticalAlign=middle;fontFamily=Helvetica;fontSize=11;fontColor=default;labelBackgroundColor=default;endArrow=none;endFill=0;" edge="1" parent="1" source="jNzCGLF9xOXy1pfkeXg_-2" target="jNzCGLF9xOXy1pfkeXg_-74">
          <mxGeometry relative="1" as="geometry" />
        </mxCell>
        <mxCell id="jNzCGLF9xOXy1pfkeXg_-78" style="edgeStyle=none;shape=connector;rounded=0;orthogonalLoop=1;jettySize=auto;html=1;exitX=1;exitY=0.5;exitDx=0;exitDy=0;strokeColor=default;align=center;verticalAlign=middle;fontFamily=Helvetica;fontSize=11;fontColor=default;labelBackgroundColor=default;endArrow=none;endFill=0;" edge="1" parent="1" source="jNzCGLF9xOXy1pfkeXg_-2" target="jNzCGLF9xOXy1pfkeXg_-75">
          <mxGeometry relative="1" as="geometry" />
        </mxCell>
        <mxCell id="jNzCGLF9xOXy1pfkeXg_-79" style="edgeStyle=none;shape=connector;rounded=0;orthogonalLoop=1;jettySize=auto;html=1;exitX=1;exitY=0.5;exitDx=0;exitDy=0;entryX=0;entryY=0.5;entryDx=0;entryDy=0;strokeColor=default;align=center;verticalAlign=middle;fontFamily=Helvetica;fontSize=11;fontColor=default;labelBackgroundColor=default;endArrow=none;endFill=0;" edge="1" parent="1" source="jNzCGLF9xOXy1pfkeXg_-2" target="jNzCGLF9xOXy1pfkeXg_-76">
          <mxGeometry relative="1" as="geometry" />
        </mxCell>
        <mxCell id="jNzCGLF9xOXy1pfkeXg_-2" value="Student" style="whiteSpace=wrap;html=1;align=center;" vertex="1" parent="1">
          <mxGeometry x="460" y="155" width="100" height="40" as="geometry" />
        </mxCell>
        <mxCell id="jNzCGLF9xOXy1pfkeXg_-6" style="rounded=0;orthogonalLoop=1;jettySize=auto;html=1;exitX=1;exitY=0.5;exitDx=0;exitDy=0;entryX=0;entryY=0.5;entryDx=0;entryDy=0;endArrow=none;endFill=0;startArrow=ERmandOne;startFill=0;" edge="1" parent="1" source="jNzCGLF9xOXy1pfkeXg_-3" target="jNzCGLF9xOXy1pfkeXg_-5">
          <mxGeometry relative="1" as="geometry" />
        </mxCell>
        <mxCell id="jNzCGLF9xOXy1pfkeXg_-25" style="edgeStyle=none;shape=connector;rounded=0;orthogonalLoop=1;jettySize=auto;html=1;exitX=0.5;exitY=1;exitDx=0;exitDy=0;entryX=0.5;entryY=0;entryDx=0;entryDy=0;strokeColor=default;align=center;verticalAlign=middle;fontFamily=Helvetica;fontSize=11;fontColor=default;labelBackgroundColor=default;endArrow=none;endFill=0;" edge="1" parent="1" source="jNzCGLF9xOXy1pfkeXg_-3" target="jNzCGLF9xOXy1pfkeXg_-24">
          <mxGeometry relative="1" as="geometry" />
        </mxCell>
        <mxCell id="jNzCGLF9xOXy1pfkeXg_-28" style="edgeStyle=none;shape=connector;rounded=0;orthogonalLoop=1;jettySize=auto;html=1;exitX=0.5;exitY=1;exitDx=0;exitDy=0;entryX=0.5;entryY=0;entryDx=0;entryDy=0;strokeColor=default;align=center;verticalAlign=middle;fontFamily=Helvetica;fontSize=11;fontColor=default;labelBackgroundColor=default;endArrow=none;endFill=0;" edge="1" parent="1" source="jNzCGLF9xOXy1pfkeXg_-3" target="jNzCGLF9xOXy1pfkeXg_-27">
          <mxGeometry relative="1" as="geometry" />
        </mxCell>
        <mxCell id="jNzCGLF9xOXy1pfkeXg_-30" style="edgeStyle=none;shape=connector;rounded=0;orthogonalLoop=1;jettySize=auto;html=1;exitX=0.5;exitY=1;exitDx=0;exitDy=0;strokeColor=default;align=center;verticalAlign=middle;fontFamily=Helvetica;fontSize=11;fontColor=default;labelBackgroundColor=default;endArrow=none;endFill=0;" edge="1" parent="1" source="jNzCGLF9xOXy1pfkeXg_-3" target="jNzCGLF9xOXy1pfkeXg_-29">
          <mxGeometry relative="1" as="geometry" />
        </mxCell>
        <mxCell id="jNzCGLF9xOXy1pfkeXg_-32" style="edgeStyle=none;shape=connector;rounded=0;orthogonalLoop=1;jettySize=auto;html=1;exitX=0.5;exitY=1;exitDx=0;exitDy=0;entryX=0;entryY=0;entryDx=0;entryDy=0;strokeColor=default;align=center;verticalAlign=middle;fontFamily=Helvetica;fontSize=11;fontColor=default;labelBackgroundColor=default;endArrow=none;endFill=0;" edge="1" parent="1" source="jNzCGLF9xOXy1pfkeXg_-3" target="jNzCGLF9xOXy1pfkeXg_-31">
          <mxGeometry relative="1" as="geometry" />
        </mxCell>
        <mxCell id="jNzCGLF9xOXy1pfkeXg_-43" style="edgeStyle=orthogonalEdgeStyle;shape=connector;rounded=0;orthogonalLoop=1;jettySize=auto;html=1;exitX=0.5;exitY=0;exitDx=0;exitDy=0;entryX=1;entryY=0.5;entryDx=0;entryDy=0;strokeColor=default;align=center;verticalAlign=middle;fontFamily=Helvetica;fontSize=11;fontColor=default;labelBackgroundColor=default;endArrow=none;endFill=0;startArrow=ERzeroToMany;startFill=0;" edge="1" parent="1" source="jNzCGLF9xOXy1pfkeXg_-3" target="jNzCGLF9xOXy1pfkeXg_-42">
          <mxGeometry relative="1" as="geometry" />
        </mxCell>
        <mxCell id="jNzCGLF9xOXy1pfkeXg_-3" value="Course" style="whiteSpace=wrap;html=1;align=center;" vertex="1" parent="1">
          <mxGeometry x="110" y="335" width="100" height="40" as="geometry" />
        </mxCell>
        <mxCell id="jNzCGLF9xOXy1pfkeXg_-33" style="edgeStyle=none;shape=connector;rounded=0;orthogonalLoop=1;jettySize=auto;html=1;exitX=0.25;exitY=1;exitDx=0;exitDy=0;strokeColor=default;align=center;verticalAlign=middle;fontFamily=Helvetica;fontSize=11;fontColor=default;labelBackgroundColor=default;endArrow=none;endFill=0;entryX=0.5;entryY=0;entryDx=0;entryDy=0;" edge="1" parent="1" source="jNzCGLF9xOXy1pfkeXg_-4" target="jNzCGLF9xOXy1pfkeXg_-36">
          <mxGeometry relative="1" as="geometry">
            <mxPoint x="437.5" y="397.5" as="targetPoint" />
          </mxGeometry>
        </mxCell>
        <mxCell id="jNzCGLF9xOXy1pfkeXg_-39" style="edgeStyle=none;shape=connector;rounded=0;orthogonalLoop=1;jettySize=auto;html=1;exitX=0.5;exitY=1;exitDx=0;exitDy=0;strokeColor=default;align=center;verticalAlign=middle;fontFamily=Helvetica;fontSize=11;fontColor=default;labelBackgroundColor=default;endArrow=none;endFill=0;" edge="1" parent="1" source="jNzCGLF9xOXy1pfkeXg_-4" target="jNzCGLF9xOXy1pfkeXg_-37">
          <mxGeometry relative="1" as="geometry" />
        </mxCell>
        <mxCell id="jNzCGLF9xOXy1pfkeXg_-4" value="Course_Offering" style="whiteSpace=wrap;html=1;align=center;strokeWidth=2;" vertex="1" parent="1">
          <mxGeometry x="460" y="335" width="100" height="40" as="geometry" />
        </mxCell>
        <mxCell id="jNzCGLF9xOXy1pfkeXg_-7" style="edgeStyle=none;shape=connector;rounded=0;orthogonalLoop=1;jettySize=auto;html=1;exitX=1;exitY=0.5;exitDx=0;exitDy=0;entryX=0;entryY=0.5;entryDx=0;entryDy=0;strokeColor=default;align=center;verticalAlign=middle;fontFamily=Helvetica;fontSize=11;fontColor=default;labelBackgroundColor=default;endArrow=ERzeroToMany;endFill=0;" edge="1" parent="1" source="jNzCGLF9xOXy1pfkeXg_-5" target="jNzCGLF9xOXy1pfkeXg_-4">
          <mxGeometry relative="1" as="geometry" />
        </mxCell>
        <mxCell id="jNzCGLF9xOXy1pfkeXg_-5" value="is offered" style="shape=rhombus;perimeter=rhombusPerimeter;whiteSpace=wrap;html=1;align=center;" vertex="1" parent="1">
          <mxGeometry x="290" y="330" width="90" height="50" as="geometry" />
        </mxCell>
        <mxCell id="jNzCGLF9xOXy1pfkeXg_-10" style="edgeStyle=orthogonalEdgeStyle;shape=connector;rounded=0;orthogonalLoop=1;jettySize=auto;html=1;exitX=0.5;exitY=1;exitDx=0;exitDy=0;entryX=0.25;entryY=0;entryDx=0;entryDy=0;strokeColor=default;align=center;verticalAlign=middle;fontFamily=Helvetica;fontSize=11;fontColor=default;labelBackgroundColor=default;endArrow=ERoneToMany;endFill=0;" edge="1" parent="1" source="jNzCGLF9xOXy1pfkeXg_-8" target="jNzCGLF9xOXy1pfkeXg_-4">
          <mxGeometry relative="1" as="geometry" />
        </mxCell>
        <mxCell id="jNzCGLF9xOXy1pfkeXg_-8" value="teaches" style="shape=rhombus;perimeter=rhombusPerimeter;whiteSpace=wrap;html=1;align=center;" vertex="1" parent="1">
          <mxGeometry x="282.5" y="260" width="75" height="35" as="geometry" />
        </mxCell>
        <mxCell id="jNzCGLF9xOXy1pfkeXg_-22" style="edgeStyle=none;shape=connector;rounded=0;orthogonalLoop=1;jettySize=auto;html=1;exitX=0.5;exitY=1;exitDx=0;exitDy=0;entryX=0.5;entryY=0;entryDx=0;entryDy=0;strokeColor=default;align=center;verticalAlign=middle;fontFamily=Helvetica;fontSize=11;fontColor=default;labelBackgroundColor=default;endArrow=ERoneToMany;endFill=0;" edge="1" parent="1" source="jNzCGLF9xOXy1pfkeXg_-20" target="jNzCGLF9xOXy1pfkeXg_-4">
          <mxGeometry relative="1" as="geometry" />
        </mxCell>
        <mxCell id="jNzCGLF9xOXy1pfkeXg_-23" style="edgeStyle=none;shape=connector;rounded=0;orthogonalLoop=1;jettySize=auto;html=1;exitX=1;exitY=0.5;exitDx=0;exitDy=0;strokeColor=default;align=center;verticalAlign=middle;fontFamily=Helvetica;fontSize=11;fontColor=default;labelBackgroundColor=default;endArrow=none;endFill=0;entryX=0;entryY=0.5;entryDx=0;entryDy=0;" edge="1" parent="1" source="jNzCGLF9xOXy1pfkeXg_-20" target="jNzCGLF9xOXy1pfkeXg_-40">
          <mxGeometry relative="1" as="geometry">
            <mxPoint x="600" y="260" as="targetPoint" />
          </mxGeometry>
        </mxCell>
        <mxCell id="jNzCGLF9xOXy1pfkeXg_-20" value="takes" style="shape=rhombus;perimeter=rhombusPerimeter;whiteSpace=wrap;html=1;align=center;" vertex="1" parent="1">
          <mxGeometry x="465" y="250" width="90" height="35" as="geometry" />
        </mxCell>
        <mxCell id="jNzCGLF9xOXy1pfkeXg_-24" value="code" style="ellipse;whiteSpace=wrap;html=1;align=center;fontStyle=4;fontFamily=Helvetica;fontSize=11;fontColor=default;labelBackgroundColor=default;" vertex="1" parent="1">
          <mxGeometry x="40" y="395" width="60" height="30" as="geometry" />
        </mxCell>
        <mxCell id="jNzCGLF9xOXy1pfkeXg_-27" value="title" style="ellipse;whiteSpace=wrap;html=1;align=center;fontFamily=Helvetica;fontSize=11;fontColor=default;labelBackgroundColor=default;" vertex="1" parent="1">
          <mxGeometry x="100" y="405" width="75" height="25" as="geometry" />
        </mxCell>
        <mxCell id="jNzCGLF9xOXy1pfkeXg_-29" value="description" style="ellipse;whiteSpace=wrap;html=1;align=center;fontFamily=Helvetica;fontSize=11;fontColor=default;labelBackgroundColor=default;" vertex="1" parent="1">
          <mxGeometry x="160" y="430" width="75" height="25" as="geometry" />
        </mxCell>
        <mxCell id="jNzCGLF9xOXy1pfkeXg_-31" value="credit_points" style="ellipse;whiteSpace=wrap;html=1;align=center;fontFamily=Helvetica;fontSize=11;fontColor=default;labelBackgroundColor=default;" vertex="1" parent="1">
          <mxGeometry x="200" y="395" width="75" height="25" as="geometry" />
        </mxCell>
        <mxCell id="jNzCGLF9xOXy1pfkeXg_-36" value="&lt;span style=&quot;border-bottom: 1px dotted&quot;&gt;semester&lt;/span&gt;" style="ellipse;whiteSpace=wrap;html=1;align=center;fontFamily=Helvetica;fontSize=11;fontColor=default;labelBackgroundColor=default;" vertex="1" parent="1">
          <mxGeometry x="447.5" y="405" width="60" height="25" as="geometry" />
        </mxCell>
        <mxCell id="jNzCGLF9xOXy1pfkeXg_-37" value="&lt;span style=&quot;border-bottom: 1px dotted&quot;&gt;year&lt;/span&gt;" style="ellipse;whiteSpace=wrap;html=1;align=center;fontFamily=Helvetica;fontSize=11;fontColor=default;labelBackgroundColor=default;" vertex="1" parent="1">
          <mxGeometry x="530" y="410" width="62.5" height="22.5" as="geometry" />
        </mxCell>
        <mxCell id="jNzCGLF9xOXy1pfkeXg_-40" value="final_scores" style="ellipse;whiteSpace=wrap;html=1;align=center;fontFamily=Helvetica;fontSize=11;fontColor=default;labelBackgroundColor=default;" vertex="1" parent="1">
          <mxGeometry x="577.5" y="255" width="67.5" height="25" as="geometry" />
        </mxCell>
        <mxCell id="jNzCGLF9xOXy1pfkeXg_-44" style="edgeStyle=orthogonalEdgeStyle;shape=connector;rounded=0;orthogonalLoop=1;jettySize=auto;html=1;exitX=0;exitY=0.5;exitDx=0;exitDy=0;entryX=0;entryY=0.5;entryDx=0;entryDy=0;strokeColor=default;align=center;verticalAlign=middle;fontFamily=Helvetica;fontSize=11;fontColor=default;labelBackgroundColor=default;endArrow=ERzeroToMany;endFill=0;" edge="1" parent="1" source="jNzCGLF9xOXy1pfkeXg_-42" target="jNzCGLF9xOXy1pfkeXg_-3">
          <mxGeometry relative="1" as="geometry" />
        </mxCell>
        <mxCell id="jNzCGLF9xOXy1pfkeXg_-42" value="is prerequisite" style="shape=rhombus;perimeter=rhombusPerimeter;whiteSpace=wrap;html=1;align=center;fontFamily=Helvetica;fontSize=11;fontColor=default;labelBackgroundColor=default;" vertex="1" parent="1">
          <mxGeometry x="50" y="265" width="90" height="50" as="geometry" />
        </mxCell>
        <mxCell id="jNzCGLF9xOXy1pfkeXg_-47" style="edgeStyle=none;shape=connector;rounded=0;orthogonalLoop=1;jettySize=auto;html=1;entryX=0;entryY=0.5;entryDx=0;entryDy=0;strokeColor=default;align=center;verticalAlign=middle;fontFamily=Helvetica;fontSize=11;fontColor=default;labelBackgroundColor=default;endArrow=none;endFill=0;" edge="1" parent="1" source="jNzCGLF9xOXy1pfkeXg_-45" target="jNzCGLF9xOXy1pfkeXg_-2">
          <mxGeometry relative="1" as="geometry" />
        </mxCell>
        <mxCell id="jNzCGLF9xOXy1pfkeXg_-51" value="&lt;font&gt;0..3&lt;/font&gt;" style="edgeLabel;html=1;align=center;verticalAlign=middle;resizable=0;points=[];fontFamily=Helvetica;fontSize=10;fontColor=default;labelBackgroundColor=default;" vertex="1" connectable="0" parent="jNzCGLF9xOXy1pfkeXg_-47">
          <mxGeometry x="0.7137" y="-1" relative="1" as="geometry">
            <mxPoint x="-16" y="-1" as="offset" />
          </mxGeometry>
        </mxCell>
        <mxCell id="jNzCGLF9xOXy1pfkeXg_-54" style="edgeStyle=none;shape=connector;rounded=0;orthogonalLoop=1;jettySize=auto;html=1;exitX=0;exitY=0;exitDx=0;exitDy=0;entryX=0.5;entryY=1;entryDx=0;entryDy=0;strokeColor=default;align=center;verticalAlign=middle;fontFamily=Helvetica;fontSize=11;fontColor=default;labelBackgroundColor=default;endArrow=none;endFill=0;" edge="1" parent="1" source="jNzCGLF9xOXy1pfkeXg_-45" target="jNzCGLF9xOXy1pfkeXg_-52">
          <mxGeometry relative="1" as="geometry" />
        </mxCell>
        <mxCell id="jNzCGLF9xOXy1pfkeXg_-55" style="edgeStyle=none;shape=connector;rounded=0;orthogonalLoop=1;jettySize=auto;html=1;exitX=1;exitY=0;exitDx=0;exitDy=0;entryX=0.5;entryY=1;entryDx=0;entryDy=0;strokeColor=default;align=center;verticalAlign=middle;fontFamily=Helvetica;fontSize=11;fontColor=default;labelBackgroundColor=default;endArrow=none;endFill=0;" edge="1" parent="1" source="jNzCGLF9xOXy1pfkeXg_-45" target="jNzCGLF9xOXy1pfkeXg_-53">
          <mxGeometry relative="1" as="geometry" />
        </mxCell>
        <mxCell id="jNzCGLF9xOXy1pfkeXg_-45" value="supervises" style="shape=rhombus;perimeter=rhombusPerimeter;whiteSpace=wrap;html=1;align=center;" vertex="1" parent="1">
          <mxGeometry x="275" y="150" width="90" height="50" as="geometry" />
        </mxCell>
        <mxCell id="jNzCGLF9xOXy1pfkeXg_-52" value="&lt;span style=&quot;border-bottom: 1px dotted&quot;&gt;semester&lt;/span&gt;" style="ellipse;whiteSpace=wrap;html=1;align=center;fontFamily=Helvetica;fontSize=11;fontColor=default;labelBackgroundColor=default;" vertex="1" parent="1">
          <mxGeometry x="225" y="32.5" width="70" height="30" as="geometry" />
        </mxCell>
        <mxCell id="jNzCGLF9xOXy1pfkeXg_-53" value="&lt;span style=&quot;border-bottom: 1px dotted&quot;&gt;year&lt;/span&gt;" style="ellipse;whiteSpace=wrap;html=1;align=center;fontFamily=Helvetica;fontSize=11;fontColor=default;labelBackgroundColor=default;" vertex="1" parent="1">
          <mxGeometry x="355" y="200" width="70" height="30" as="geometry" />
        </mxCell>
        <mxCell id="jNzCGLF9xOXy1pfkeXg_-57" style="edgeStyle=orthogonalEdgeStyle;shape=connector;rounded=0;orthogonalLoop=1;jettySize=auto;html=1;exitX=0;exitY=0.5;exitDx=0;exitDy=0;entryX=0.5;entryY=0;entryDx=0;entryDy=0;strokeColor=default;align=center;verticalAlign=middle;fontFamily=Helvetica;fontSize=11;fontColor=default;labelBackgroundColor=default;endArrow=none;endFill=0;startArrow=ERmandOne;startFill=0;" edge="1" parent="1" source="jNzCGLF9xOXy1pfkeXg_-56" target="jNzCGLF9xOXy1pfkeXg_-45">
          <mxGeometry relative="1" as="geometry" />
        </mxCell>
        <mxCell id="jNzCGLF9xOXy1pfkeXg_-58" style="edgeStyle=none;shape=connector;rounded=0;orthogonalLoop=1;jettySize=auto;html=1;exitX=0.5;exitY=0;exitDx=0;exitDy=0;strokeColor=default;align=center;verticalAlign=middle;fontFamily=Helvetica;fontSize=11;fontColor=default;labelBackgroundColor=default;endArrow=none;endFill=0;entryX=0;entryY=0.5;entryDx=0;entryDy=0;" edge="1" parent="1" source="jNzCGLF9xOXy1pfkeXg_-56" target="jNzCGLF9xOXy1pfkeXg_-59">
          <mxGeometry relative="1" as="geometry">
            <mxPoint x="600" y="30" as="targetPoint" />
          </mxGeometry>
        </mxCell>
        <mxCell id="jNzCGLF9xOXy1pfkeXg_-63" style="edgeStyle=none;shape=connector;rounded=0;orthogonalLoop=1;jettySize=auto;html=1;exitX=0.5;exitY=0;exitDx=0;exitDy=0;entryX=0;entryY=0.5;entryDx=0;entryDy=0;strokeColor=default;align=center;verticalAlign=middle;fontFamily=Helvetica;fontSize=11;fontColor=default;labelBackgroundColor=default;endArrow=none;endFill=0;" edge="1" parent="1" source="jNzCGLF9xOXy1pfkeXg_-56" target="jNzCGLF9xOXy1pfkeXg_-62">
          <mxGeometry relative="1" as="geometry" />
        </mxCell>
        <mxCell id="jNzCGLF9xOXy1pfkeXg_-56" value="Thesis" style="whiteSpace=wrap;html=1;align=center;" vertex="1" parent="1">
          <mxGeometry x="460" y="80" width="100" height="40" as="geometry" />
        </mxCell>
        <mxCell id="jNzCGLF9xOXy1pfkeXg_-59" value="code" style="ellipse;whiteSpace=wrap;html=1;align=center;fontStyle=4;fontFamily=Helvetica;fontSize=11;fontColor=default;labelBackgroundColor=default;" vertex="1" parent="1">
          <mxGeometry x="420" y="20" width="60" height="30" as="geometry" />
        </mxCell>
        <mxCell id="jNzCGLF9xOXy1pfkeXg_-61" style="edgeStyle=none;shape=connector;rounded=0;orthogonalLoop=1;jettySize=auto;html=1;exitX=0;exitY=0.5;exitDx=0;exitDy=0;entryX=0.5;entryY=0;entryDx=0;entryDy=0;strokeColor=default;align=center;verticalAlign=middle;fontFamily=Helvetica;fontSize=11;fontColor=default;labelBackgroundColor=default;endArrow=none;endFill=0;" edge="1" parent="1" source="jNzCGLF9xOXy1pfkeXg_-60" target="jNzCGLF9xOXy1pfkeXg_-56">
          <mxGeometry relative="1" as="geometry" />
        </mxCell>
        <mxCell id="jNzCGLF9xOXy1pfkeXg_-60" value="title" style="ellipse;whiteSpace=wrap;html=1;align=center;fontFamily=Helvetica;fontSize=11;fontColor=default;labelBackgroundColor=default;" vertex="1" parent="1">
          <mxGeometry x="507.5" y="10" width="75" height="25" as="geometry" />
        </mxCell>
        <mxCell id="jNzCGLF9xOXy1pfkeXg_-62" value="abstract" style="ellipse;whiteSpace=wrap;html=1;align=center;fontFamily=Helvetica;fontSize=11;fontColor=default;labelBackgroundColor=default;" vertex="1" parent="1">
          <mxGeometry x="582.5" y="40" width="75" height="25" as="geometry" />
        </mxCell>
        <mxCell id="jNzCGLF9xOXy1pfkeXg_-64" value="id" style="ellipse;whiteSpace=wrap;html=1;align=center;fontStyle=4;fontFamily=Helvetica;fontSize=11;fontColor=default;labelBackgroundColor=default;" vertex="1" parent="1">
          <mxGeometry x="40" y="120" width="60" height="30" as="geometry" />
        </mxCell>
        <mxCell id="jNzCGLF9xOXy1pfkeXg_-66" value="name" style="ellipse;whiteSpace=wrap;html=1;align=center;fontFamily=Helvetica;fontSize=11;fontColor=default;labelBackgroundColor=default;" vertex="1" parent="1">
          <mxGeometry x="25" y="150" width="75" height="25" as="geometry" />
        </mxCell>
        <mxCell id="jNzCGLF9xOXy1pfkeXg_-68" value="expertise" style="ellipse;whiteSpace=wrap;html=1;align=center;fontFamily=Helvetica;fontSize=11;fontColor=default;labelBackgroundColor=default;" vertex="1" parent="1">
          <mxGeometry x="25" y="180" width="75" height="25" as="geometry" />
        </mxCell>
        <mxCell id="jNzCGLF9xOXy1pfkeXg_-74" value="id" style="ellipse;whiteSpace=wrap;html=1;align=center;fontStyle=4;fontFamily=Helvetica;fontSize=11;fontColor=default;labelBackgroundColor=default;" vertex="1" parent="1">
          <mxGeometry x="592.5" y="120" width="60" height="30" as="geometry" />
        </mxCell>
        <mxCell id="jNzCGLF9xOXy1pfkeXg_-75" value="name" style="ellipse;whiteSpace=wrap;html=1;align=center;fontFamily=Helvetica;fontSize=11;fontColor=default;labelBackgroundColor=default;" vertex="1" parent="1">
          <mxGeometry x="607.5" y="150" width="75" height="25" as="geometry" />
        </mxCell>
        <mxCell id="jNzCGLF9xOXy1pfkeXg_-76" value="major" style="ellipse;whiteSpace=wrap;html=1;align=center;fontFamily=Helvetica;fontSize=11;fontColor=default;labelBackgroundColor=default;" vertex="1" parent="1">
          <mxGeometry x="577.5" y="180" width="75" height="25" as="geometry" />
        </mxCell>
        <mxCell id="jNzCGLF9xOXy1pfkeXg_-80" value="email" style="ellipse;whiteSpace=wrap;html=1;align=center;fontFamily=Helvetica;fontSize=11;fontColor=default;labelBackgroundColor=default;" vertex="1" parent="1">
          <mxGeometry x="32.5" y="210" width="67.5" height="25" as="geometry" />
        </mxCell>
        <mxCell id="jNzCGLF9xOXy1pfkeXg_-82" value="email" style="ellipse;whiteSpace=wrap;html=1;align=center;fontFamily=Helvetica;fontSize=11;fontColor=default;labelBackgroundColor=default;" vertex="1" parent="1">
          <mxGeometry x="555" y="210" width="67.5" height="25" as="geometry" />
        </mxCell>
        <mxCell id="jNzCGLF9xOXy1pfkeXg_-83" style="edgeStyle=none;shape=connector;rounded=0;orthogonalLoop=1;jettySize=auto;html=1;exitX=1;exitY=1;exitDx=0;exitDy=0;entryX=0.302;entryY=0.16;entryDx=0;entryDy=0;entryPerimeter=0;strokeColor=default;align=center;verticalAlign=middle;fontFamily=Helvetica;fontSize=11;fontColor=default;labelBackgroundColor=default;endArrow=none;endFill=0;" edge="1" parent="1" source="jNzCGLF9xOXy1pfkeXg_-2" target="jNzCGLF9xOXy1pfkeXg_-82">
          <mxGeometry relative="1" as="geometry" />
        </mxCell>
      </root>
    </mxGraphModel>
  </diagram>
</mxfile>
